<svg aria-hidden="true" style="position: absolute; width: 0; height: 0; overflow: hidden;" version="1.1" xmlns="http://www.w3.org/2000/svg" xmlns:xlink="http://www.w3.org/1999/xlink">
<defs>
<symbol id="icon-points" viewBox="0 0 0 32">
<path fill="#ff6b09" style="fill: var(--color1, #ff6b09)" d="M0.149 0.297c-0.082 0-0.149-0.067-0.149-0.149s0.067-0.149 0.149-0.149c0.082 0 0.149 0.067 0.149 0.149s-0.067 0.149-0.149 0.149z"></path>
<path fill="#ff6b09" style="fill: var(--color1, #ff6b09)" d="M0.149 6.118c-0.082 0-0.149-0.067-0.149-0.149s0.067-0.149 0.149-0.149c0.082 0 0.149 0.067 0.149 0.149s-0.067 0.149-0.149 0.149z"></path>
<path fill="#ff6b09" style="fill: var(--color1, #ff6b09)" d="M0.149 12.929c-0.082 0-0.149-0.067-0.149-0.149s0.067-0.149 0.149-0.149c0.082 0 0.149 0.067 0.149 0.149s-0.067 0.149-0.149 0.149z"></path>
<path fill="#ff6b09" style="fill: var(--color1, #ff6b09)" d="M0.149 22.093c-0.082 0-0.149-0.067-0.149-0.149s0.067-0.149 0.149-0.149c0.082 0 0.149 0.067 0.149 0.149s-0.067 0.149-0.149 0.149z"></path>
<path fill="#ff6b09" style="fill: var(--color1, #ff6b09)" d="M0.149 32c-0.082 0-0.149-0.067-0.149-0.149s0.067-0.149 0.149-0.149c0.082 0 0.149 0.067 0.149 0.149s-0.067 0.149-0.149 0.149z"></path>
</symbol>
<symbol id="icon-vector-1" viewBox="0 0 0 32">
<path fill="none" stroke="#fff" style="stroke: var(--color2, #fff)" stroke-linejoin="miter" stroke-linecap="butt" stroke-miterlimit="4" stroke-width="0.0250" d="M0.025 0v32"></path>
</symbol>
</defs>
</svg>
